<mxfile host="app.diagrams.net" modified="2021-06-09T06:15:23.038Z" agent="5.0 (Macintosh; Intel Mac OS X 10_15_7) AppleWebKit/537.36 (KHTML, like Gecko) Chrome/91.0.4472.77 Safari/537.36" etag="YG3HtVGwgbi5pEthP2Gv" version="14.7.6" type="github">
  <diagram id="3nBwvhTc-esfDl9ZkUod" name="Page-1">
    <mxGraphModel dx="946" dy="614" grid="1" gridSize="10" guides="1" tooltips="1" connect="1" arrows="1" fold="1" page="1" pageScale="1" pageWidth="850" pageHeight="1100" background="none" math="0" shadow="0">
      <root>
        <mxCell id="0" />
        <mxCell id="1" parent="0" />
        <mxCell id="19OiQsmFl_EWTAf0VnL9-4" value="&lt;font style=&quot;font-size: 14px&quot;&gt;用户池&lt;/font&gt;" style="shape=cylinder3;whiteSpace=wrap;html=1;boundedLbl=1;backgroundOutline=1;size=15;fillColor=#4D9900;" parent="1" vertex="1">
          <mxGeometry x="140" y="140" width="110" height="80" as="geometry" />
        </mxCell>
        <mxCell id="19OiQsmFl_EWTAf0VnL9-5" value="&lt;font style=&quot;font-size: 14px&quot;&gt;广告库&lt;/font&gt;" style="shape=cylinder3;whiteSpace=wrap;html=1;boundedLbl=1;backgroundOutline=1;size=15;fillColor=#4D9900;" parent="1" vertex="1">
          <mxGeometry x="540" y="140" width="110" height="80" as="geometry" />
        </mxCell>
        <mxCell id="19OiQsmFl_EWTAf0VnL9-26" style="edgeStyle=orthogonalEdgeStyle;rounded=0;orthogonalLoop=1;jettySize=auto;html=1;exitX=0.5;exitY=1;exitDx=0;exitDy=0;exitPerimeter=0;entryX=0.5;entryY=0;entryDx=0;entryDy=0;" parent="1" source="19OiQsmFl_EWTAf0VnL9-6" target="19OiQsmFl_EWTAf0VnL9-16" edge="1">
          <mxGeometry relative="1" as="geometry" />
        </mxCell>
        <mxCell id="19OiQsmFl_EWTAf0VnL9-6" value="&lt;font style=&quot;font-size: 14px&quot;&gt;视频库&lt;/font&gt;" style="shape=cylinder3;whiteSpace=wrap;html=1;boundedLbl=1;backgroundOutline=1;size=15;fillColor=#4D9900;dashed=1;" parent="1" vertex="1">
          <mxGeometry x="341" y="140" width="110" height="80" as="geometry" />
        </mxCell>
        <mxCell id="19OiQsmFl_EWTAf0VnL9-15" value="" style="endArrow=classic;html=1;" parent="1" edge="1">
          <mxGeometry width="50" height="50" relative="1" as="geometry">
            <mxPoint x="600" y="220" as="sourcePoint" />
            <mxPoint x="600" y="260" as="targetPoint" />
          </mxGeometry>
        </mxCell>
        <mxCell id="19OiQsmFl_EWTAf0VnL9-16" value="广告检索（BE召回）" style="rounded=0;whiteSpace=wrap;html=1;fillColor=#CC6600;" parent="1" vertex="1">
          <mxGeometry x="336" y="270" width="120" height="40" as="geometry" />
        </mxCell>
        <mxCell id="19OiQsmFl_EWTAf0VnL9-17" value="点击率预估（粗排/精排）" style="rounded=0;whiteSpace=wrap;html=1;fillColor=#CC6600;" parent="1" vertex="1">
          <mxGeometry x="336" y="360" width="120" height="40" as="geometry" />
        </mxCell>
        <mxCell id="19OiQsmFl_EWTAf0VnL9-18" value="在线库存分配" style="rounded=0;whiteSpace=wrap;html=1;fillColor=#CC6600;dashed=1;" parent="1" vertex="1">
          <mxGeometry x="336" y="450" width="120" height="40" as="geometry" />
        </mxCell>
        <mxCell id="19OiQsmFl_EWTAf0VnL9-19" value="&lt;span style=&quot;font-size: 14px&quot;&gt;投放页面&lt;/span&gt;" style="shape=cylinder3;whiteSpace=wrap;html=1;boundedLbl=1;backgroundOutline=1;size=15;fillColor=#4D9900;" parent="1" vertex="1">
          <mxGeometry x="341" y="629" width="110" height="80" as="geometry" />
        </mxCell>
        <mxCell id="19OiQsmFl_EWTAf0VnL9-20" value="智能出价（预算管理/pacing）" style="rounded=0;whiteSpace=wrap;html=1;fillColor=#CC6600;" parent="1" vertex="1">
          <mxGeometry x="336" y="540" width="120" height="40" as="geometry" />
        </mxCell>
        <mxCell id="19OiQsmFl_EWTAf0VnL9-21" value="&lt;span style=&quot;font-size: 14px&quot;&gt;广告主业务数据库&lt;/span&gt;" style="shape=cylinder3;whiteSpace=wrap;html=1;boundedLbl=1;backgroundOutline=1;size=15;fillColor=#4D9900;" parent="1" vertex="1">
          <mxGeometry x="550" y="629" width="120" height="80" as="geometry" />
        </mxCell>
        <mxCell id="19OiQsmFl_EWTAf0VnL9-22" value="" style="endArrow=none;html=1;entryX=0.5;entryY=1;entryDx=0;entryDy=0;entryPerimeter=0;" parent="1" target="19OiQsmFl_EWTAf0VnL9-4" edge="1">
          <mxGeometry width="50" height="50" relative="1" as="geometry">
            <mxPoint x="195" y="250" as="sourcePoint" />
            <mxPoint x="190" y="280" as="targetPoint" />
          </mxGeometry>
        </mxCell>
        <mxCell id="19OiQsmFl_EWTAf0VnL9-23" value="" style="endArrow=none;html=1;" parent="1" edge="1">
          <mxGeometry width="50" height="50" relative="1" as="geometry">
            <mxPoint x="195" y="250" as="sourcePoint" />
            <mxPoint x="600" y="250" as="targetPoint" />
          </mxGeometry>
        </mxCell>
        <mxCell id="19OiQsmFl_EWTAf0VnL9-27" value="" style="shape=flexArrow;endArrow=classic;html=1;exitX=0.5;exitY=1;exitDx=0;exitDy=0;" parent="1" source="19OiQsmFl_EWTAf0VnL9-16" target="19OiQsmFl_EWTAf0VnL9-17" edge="1">
          <mxGeometry width="50" height="50" relative="1" as="geometry">
            <mxPoint x="400" y="470" as="sourcePoint" />
            <mxPoint x="450" y="420" as="targetPoint" />
          </mxGeometry>
        </mxCell>
        <mxCell id="19OiQsmFl_EWTAf0VnL9-28" value="" style="shape=flexArrow;endArrow=classic;html=1;exitX=0.5;exitY=1;exitDx=0;exitDy=0;" parent="1" edge="1">
          <mxGeometry width="50" height="50" relative="1" as="geometry">
            <mxPoint x="395.5" y="400" as="sourcePoint" />
            <mxPoint x="395.5" y="450" as="targetPoint" />
          </mxGeometry>
        </mxCell>
        <mxCell id="19OiQsmFl_EWTAf0VnL9-29" value="" style="shape=flexArrow;endArrow=classic;html=1;exitX=0.5;exitY=1;exitDx=0;exitDy=0;" parent="1" edge="1">
          <mxGeometry width="50" height="50" relative="1" as="geometry">
            <mxPoint x="395.5" y="490" as="sourcePoint" />
            <mxPoint x="395.5" y="540" as="targetPoint" />
          </mxGeometry>
        </mxCell>
        <mxCell id="19OiQsmFl_EWTAf0VnL9-30" value="" style="shape=flexArrow;endArrow=classic;html=1;exitX=0.5;exitY=1;exitDx=0;exitDy=0;" parent="1" edge="1">
          <mxGeometry width="50" height="50" relative="1" as="geometry">
            <mxPoint x="395.5" y="580" as="sourcePoint" />
            <mxPoint x="395.5" y="630" as="targetPoint" />
          </mxGeometry>
        </mxCell>
        <mxCell id="19OiQsmFl_EWTAf0VnL9-31" value="" style="endArrow=classic;html=1;entryX=0;entryY=0.5;entryDx=0;entryDy=0;entryPerimeter=0;exitX=1;exitY=0.5;exitDx=0;exitDy=0;exitPerimeter=0;" parent="1" source="19OiQsmFl_EWTAf0VnL9-19" target="19OiQsmFl_EWTAf0VnL9-21" edge="1">
          <mxGeometry width="50" height="50" relative="1" as="geometry">
            <mxPoint x="400" y="590" as="sourcePoint" />
            <mxPoint x="450" y="540" as="targetPoint" />
          </mxGeometry>
        </mxCell>
        <mxCell id="19OiQsmFl_EWTAf0VnL9-34" value="&lt;h1&gt;&lt;font style=&quot;font-size: 18px&quot;&gt;优酷品效一体化投放系统&lt;/font&gt;&lt;/h1&gt;" style="shape=parallelogram;perimeter=parallelogramPerimeter;whiteSpace=wrap;html=1;fixedSize=1;dashed=1;fillColor=#FFD966;size=15;" parent="1" vertex="1">
          <mxGeometry x="255" y="35" width="295" height="60" as="geometry" />
        </mxCell>
        <mxCell id="19OiQsmFl_EWTAf0VnL9-35" value="DMP" style="text;html=1;strokeColor=none;fillColor=none;align=center;verticalAlign=middle;whiteSpace=wrap;rounded=0;dashed=1;" parent="1" vertex="1">
          <mxGeometry x="600" y="222" width="40" height="20" as="geometry" />
        </mxCell>
        <mxCell id="J31y5YJIyik61Mz8HMyp-1" value="" style="shape=flexArrow;endArrow=classic;html=1;entryX=1;entryY=0.75;entryDx=0;entryDy=0;" edge="1" parent="1">
          <mxGeometry width="50" height="50" relative="1" as="geometry">
            <mxPoint x="520" y="288" as="sourcePoint" />
            <mxPoint x="456" y="288" as="targetPoint" />
          </mxGeometry>
        </mxCell>
        <mxCell id="J31y5YJIyik61Mz8HMyp-11" value="" style="group" vertex="1" connectable="0" parent="1">
          <mxGeometry x="166" y="313" width="140" height="120" as="geometry" />
        </mxCell>
        <mxCell id="J31y5YJIyik61Mz8HMyp-24" value="" style="group" vertex="1" connectable="0" parent="J31y5YJIyik61Mz8HMyp-11">
          <mxGeometry x="-14" y="-13" width="137" height="130" as="geometry" />
        </mxCell>
        <mxCell id="J31y5YJIyik61Mz8HMyp-22" value="" style="rounded=1;whiteSpace=wrap;html=1;dashed=1;fillColor=#FFFFFF;" vertex="1" parent="J31y5YJIyik61Mz8HMyp-24">
          <mxGeometry width="137" height="130" as="geometry" />
        </mxCell>
        <mxCell id="J31y5YJIyik61Mz8HMyp-2" value="CTR模型" style="rounded=0;whiteSpace=wrap;html=1;fillColor=#3399FF;" vertex="1" parent="J31y5YJIyik61Mz8HMyp-24">
          <mxGeometry x="14" y="10" width="110" height="40" as="geometry" />
        </mxCell>
        <mxCell id="J31y5YJIyik61Mz8HMyp-3" value="&lt;span style=&quot;font-size: 6px&quot;&gt;oCPC-based DIN&lt;br&gt;&lt;/span&gt;" style="shape=parallelogram;perimeter=parallelogramPerimeter;whiteSpace=wrap;html=1;fixedSize=1;fillColor=#FFD966;size=10;" vertex="1" parent="J31y5YJIyik61Mz8HMyp-24">
          <mxGeometry x="15" y="40" width="104" height="20" as="geometry" />
        </mxCell>
        <mxCell id="J31y5YJIyik61Mz8HMyp-8" value="&lt;span style=&quot;font-size: 6px&quot;&gt;多场景MTL&lt;/span&gt;" style="shape=parallelogram;perimeter=parallelogramPerimeter;whiteSpace=wrap;html=1;fixedSize=1;fillColor=#FFD966;size=10;" vertex="1" parent="J31y5YJIyik61Mz8HMyp-24">
          <mxGeometry x="14" y="60" width="104" height="20" as="geometry" />
        </mxCell>
        <mxCell id="J31y5YJIyik61Mz8HMyp-9" value="&lt;span style=&quot;font-size: 6px&quot;&gt;sample selection&lt;/span&gt;" style="shape=parallelogram;perimeter=parallelogramPerimeter;whiteSpace=wrap;html=1;fixedSize=1;fillColor=#FFD966;size=10;" vertex="1" parent="J31y5YJIyik61Mz8HMyp-24">
          <mxGeometry x="14" y="80" width="104" height="20" as="geometry" />
        </mxCell>
        <mxCell id="J31y5YJIyik61Mz8HMyp-10" value="&lt;span style=&quot;font-size: 6px&quot;&gt;偏差校准&lt;/span&gt;" style="shape=parallelogram;perimeter=parallelogramPerimeter;whiteSpace=wrap;html=1;fixedSize=1;fillColor=#FFD966;size=10;" vertex="1" parent="J31y5YJIyik61Mz8HMyp-24">
          <mxGeometry x="14" y="100" width="104" height="20" as="geometry" />
        </mxCell>
        <mxCell id="J31y5YJIyik61Mz8HMyp-23" value="" style="group" vertex="1" connectable="0" parent="1">
          <mxGeometry x="526" y="260" width="150" height="100" as="geometry" />
        </mxCell>
        <mxCell id="19OiQsmFl_EWTAf0VnL9-11" value="" style="rounded=1;whiteSpace=wrap;html=1;dashed=1;fillColor=#FFFFFF;" parent="J31y5YJIyik61Mz8HMyp-23" vertex="1">
          <mxGeometry width="150" height="100" as="geometry" />
        </mxCell>
        <mxCell id="19OiQsmFl_EWTAf0VnL9-8" value="种子人群" style="rounded=0;whiteSpace=wrap;html=1;dashed=1;fillColor=#3399FF;" parent="J31y5YJIyik61Mz8HMyp-23" vertex="1">
          <mxGeometry x="3" y="7" width="70" height="40" as="geometry" />
        </mxCell>
        <mxCell id="19OiQsmFl_EWTAf0VnL9-9" value="人群画像" style="rounded=0;whiteSpace=wrap;html=1;dashed=1;fillColor=#3399FF;" parent="J31y5YJIyik61Mz8HMyp-23" vertex="1">
          <mxGeometry x="77" y="7" width="70" height="40" as="geometry" />
        </mxCell>
        <mxCell id="19OiQsmFl_EWTAf0VnL9-10" value="Look-Alike人群扩散" style="rounded=0;whiteSpace=wrap;html=1;dashed=1;fillColor=#3399FF;" parent="J31y5YJIyik61Mz8HMyp-23" vertex="1">
          <mxGeometry x="18" y="57" width="116" height="40" as="geometry" />
        </mxCell>
        <mxCell id="J31y5YJIyik61Mz8HMyp-26" style="edgeStyle=orthogonalEdgeStyle;rounded=0;orthogonalLoop=1;jettySize=auto;html=1;entryX=0;entryY=0.5;entryDx=0;entryDy=0;" edge="1" parent="1" target="19OiQsmFl_EWTAf0VnL9-17">
          <mxGeometry relative="1" as="geometry">
            <mxPoint x="290" y="380" as="sourcePoint" />
          </mxGeometry>
        </mxCell>
        <mxCell id="J31y5YJIyik61Mz8HMyp-35" style="edgeStyle=orthogonalEdgeStyle;rounded=0;orthogonalLoop=1;jettySize=auto;html=1;entryX=0;entryY=0.5;entryDx=0;entryDy=0;" edge="1" parent="1" target="19OiQsmFl_EWTAf0VnL9-18">
          <mxGeometry relative="1" as="geometry">
            <mxPoint x="290" y="470" as="sourcePoint" />
            <mxPoint x="346" y="390" as="targetPoint" />
          </mxGeometry>
        </mxCell>
        <mxCell id="J31y5YJIyik61Mz8HMyp-37" value="" style="group" vertex="1" connectable="0" parent="1">
          <mxGeometry x="152" y="438" width="137" height="90" as="geometry" />
        </mxCell>
        <mxCell id="J31y5YJIyik61Mz8HMyp-28" value="" style="rounded=1;whiteSpace=wrap;html=1;dashed=1;fillColor=#FFFFFF;" vertex="1" parent="J31y5YJIyik61Mz8HMyp-37">
          <mxGeometry width="137" height="90" as="geometry" />
        </mxCell>
        <mxCell id="J31y5YJIyik61Mz8HMyp-29" value="动态分配" style="rounded=0;whiteSpace=wrap;html=1;fillColor=#3399FF;" vertex="1" parent="J31y5YJIyik61Mz8HMyp-37">
          <mxGeometry x="14" y="10" width="110" height="40" as="geometry" />
        </mxCell>
        <mxCell id="J31y5YJIyik61Mz8HMyp-30" value="&lt;span style=&quot;font-size: 6px&quot;&gt;HWM&lt;br&gt;&lt;/span&gt;" style="shape=parallelogram;perimeter=parallelogramPerimeter;whiteSpace=wrap;html=1;fixedSize=1;fillColor=#FFD966;size=10;" vertex="1" parent="J31y5YJIyik61Mz8HMyp-37">
          <mxGeometry x="15" y="40" width="104" height="20" as="geometry" />
        </mxCell>
        <mxCell id="J31y5YJIyik61Mz8HMyp-31" value="&lt;span style=&quot;font-size: 6px&quot;&gt;xShale&lt;/span&gt;" style="shape=parallelogram;perimeter=parallelogramPerimeter;whiteSpace=wrap;html=1;fixedSize=1;fillColor=#FFD966;size=10;" vertex="1" parent="J31y5YJIyik61Mz8HMyp-37">
          <mxGeometry x="14" y="60" width="104" height="20" as="geometry" />
        </mxCell>
        <mxCell id="J31y5YJIyik61Mz8HMyp-34" style="edgeStyle=orthogonalEdgeStyle;rounded=0;orthogonalLoop=1;jettySize=auto;html=1;exitX=0.5;exitY=1;exitDx=0;exitDy=0;" edge="1" parent="J31y5YJIyik61Mz8HMyp-37" source="J31y5YJIyik61Mz8HMyp-28" target="J31y5YJIyik61Mz8HMyp-28">
          <mxGeometry relative="1" as="geometry" />
        </mxCell>
        <mxCell id="J31y5YJIyik61Mz8HMyp-45" value="" style="group" vertex="1" connectable="0" parent="1">
          <mxGeometry x="533" y="490" width="137" height="110" as="geometry" />
        </mxCell>
        <mxCell id="J31y5YJIyik61Mz8HMyp-39" value="" style="rounded=1;whiteSpace=wrap;html=1;dashed=1;fillColor=#FFFFFF;" vertex="1" parent="J31y5YJIyik61Mz8HMyp-45">
          <mxGeometry width="137" height="110" as="geometry" />
        </mxCell>
        <mxCell id="J31y5YJIyik61Mz8HMyp-40" value="预算模块" style="rounded=0;whiteSpace=wrap;html=1;fillColor=#3399FF;" vertex="1" parent="J31y5YJIyik61Mz8HMyp-45">
          <mxGeometry x="14" y="10" width="110" height="40" as="geometry" />
        </mxCell>
        <mxCell id="J31y5YJIyik61Mz8HMyp-41" value="&lt;span style=&quot;font-size: 6px&quot;&gt;budgets pacing&lt;br&gt;&lt;/span&gt;" style="shape=parallelogram;perimeter=parallelogramPerimeter;whiteSpace=wrap;html=1;fixedSize=1;fillColor=#FFD966;size=10;" vertex="1" parent="J31y5YJIyik61Mz8HMyp-45">
          <mxGeometry x="15" y="40" width="104" height="20" as="geometry" />
        </mxCell>
        <mxCell id="J31y5YJIyik61Mz8HMyp-42" value="&lt;span style=&quot;font-size: 6px&quot;&gt;优先跑量模块&lt;/span&gt;" style="shape=parallelogram;perimeter=parallelogramPerimeter;whiteSpace=wrap;html=1;fixedSize=1;fillColor=#FFD966;size=10;" vertex="1" parent="J31y5YJIyik61Mz8HMyp-45">
          <mxGeometry x="14" y="60" width="104" height="20" as="geometry" />
        </mxCell>
        <mxCell id="J31y5YJIyik61Mz8HMyp-43" style="edgeStyle=orthogonalEdgeStyle;rounded=0;orthogonalLoop=1;jettySize=auto;html=1;exitX=0.5;exitY=1;exitDx=0;exitDy=0;" edge="1" parent="J31y5YJIyik61Mz8HMyp-45" source="J31y5YJIyik61Mz8HMyp-39" target="J31y5YJIyik61Mz8HMyp-39">
          <mxGeometry as="geometry" />
        </mxCell>
        <mxCell id="J31y5YJIyik61Mz8HMyp-44" value="&lt;span style=&quot;font-size: 6px&quot;&gt;匀速投放模块&lt;/span&gt;" style="shape=parallelogram;perimeter=parallelogramPerimeter;whiteSpace=wrap;html=1;fixedSize=1;fillColor=#FFD966;size=10;" vertex="1" parent="J31y5YJIyik61Mz8HMyp-45">
          <mxGeometry x="14" y="80" width="104" height="20" as="geometry" />
        </mxCell>
        <mxCell id="J31y5YJIyik61Mz8HMyp-46" style="edgeStyle=orthogonalEdgeStyle;rounded=0;orthogonalLoop=1;jettySize=auto;html=1;entryX=1;entryY=0.5;entryDx=0;entryDy=0;exitX=-0.015;exitY=0.618;exitDx=0;exitDy=0;exitPerimeter=0;" edge="1" parent="1" source="J31y5YJIyik61Mz8HMyp-39" target="19OiQsmFl_EWTAf0VnL9-20">
          <mxGeometry relative="1" as="geometry">
            <mxPoint x="300" y="390" as="sourcePoint" />
            <mxPoint x="346" y="390" as="targetPoint" />
            <Array as="points">
              <mxPoint x="531" y="560" />
            </Array>
          </mxGeometry>
        </mxCell>
        <mxCell id="J31y5YJIyik61Mz8HMyp-49" value="" style="shape=flexArrow;endArrow=classic;html=1;exitX=0.5;exitY=1;exitDx=0;exitDy=0;" edge="1" parent="1">
          <mxGeometry width="50" height="50" relative="1" as="geometry">
            <mxPoint x="395.5" y="709" as="sourcePoint" />
            <mxPoint x="395.5" y="759" as="targetPoint" />
          </mxGeometry>
        </mxCell>
        <mxCell id="J31y5YJIyik61Mz8HMyp-50" value="数据流通道（埋点）" style="shape=parallelogram;perimeter=parallelogramPerimeter;whiteSpace=wrap;html=1;fixedSize=1;fillColor=#3399FF;size=9;" vertex="1" parent="1">
          <mxGeometry x="337" y="760" width="120" height="30" as="geometry" />
        </mxCell>
        <mxCell id="J31y5YJIyik61Mz8HMyp-51" value="" style="endArrow=classic;html=1;entryX=1;entryY=0.5;entryDx=0;entryDy=0;" edge="1" parent="1" target="J31y5YJIyik61Mz8HMyp-50">
          <mxGeometry width="50" height="50" relative="1" as="geometry">
            <mxPoint x="620" y="710" as="sourcePoint" />
            <mxPoint x="370" y="600" as="targetPoint" />
            <Array as="points">
              <mxPoint x="620" y="775" />
            </Array>
          </mxGeometry>
        </mxCell>
        <mxCell id="J31y5YJIyik61Mz8HMyp-52" value="" style="endArrow=classic;html=1;exitX=0;exitY=0.5;exitDx=0;exitDy=0;" edge="1" parent="1" source="J31y5YJIyik61Mz8HMyp-50">
          <mxGeometry width="50" height="50" relative="1" as="geometry">
            <mxPoint x="278.75" y="709" as="sourcePoint" />
            <mxPoint x="270" y="774" as="targetPoint" />
            <Array as="points">
              <mxPoint x="278.75" y="774" />
            </Array>
          </mxGeometry>
        </mxCell>
        <mxCell id="J31y5YJIyik61Mz8HMyp-53" value="实时计算引擎（Blink）" style="shape=parallelogram;perimeter=parallelogramPerimeter;whiteSpace=wrap;html=1;fixedSize=1;fillColor=#3399FF;size=9;" vertex="1" parent="1">
          <mxGeometry x="153.5" y="758" width="120" height="30" as="geometry" />
        </mxCell>
        <mxCell id="J31y5YJIyik61Mz8HMyp-54" value="反作弊模块" style="rounded=1;whiteSpace=wrap;html=1;fillColor=#3399FF;" vertex="1" parent="1">
          <mxGeometry x="72" y="629" width="80" height="30" as="geometry" />
        </mxCell>
        <mxCell id="J31y5YJIyik61Mz8HMyp-55" value="" style="endArrow=classic;html=1;exitX=0;exitY=0.5;exitDx=0;exitDy=0;entryX=0.5;entryY=1;entryDx=0;entryDy=0;" edge="1" parent="1" source="J31y5YJIyik61Mz8HMyp-53" target="J31y5YJIyik61Mz8HMyp-54">
          <mxGeometry width="50" height="50" relative="1" as="geometry">
            <mxPoint x="320" y="550" as="sourcePoint" />
            <mxPoint x="370" y="500" as="targetPoint" />
            <Array as="points">
              <mxPoint x="112" y="773" />
            </Array>
          </mxGeometry>
        </mxCell>
        <mxCell id="J31y5YJIyik61Mz8HMyp-56" value="" style="endArrow=classic;html=1;entryX=0;entryY=0.5;entryDx=0;entryDy=0;entryPerimeter=0;" edge="1" parent="1" target="19OiQsmFl_EWTAf0VnL9-4">
          <mxGeometry width="50" height="50" relative="1" as="geometry">
            <mxPoint x="116" y="629" as="sourcePoint" />
            <mxPoint x="150" y="360" as="targetPoint" />
            <Array as="points">
              <mxPoint x="116" y="180" />
            </Array>
          </mxGeometry>
        </mxCell>
        <mxCell id="J31y5YJIyik61Mz8HMyp-57" style="edgeStyle=orthogonalEdgeStyle;rounded=0;orthogonalLoop=1;jettySize=auto;html=1;" edge="1" parent="1">
          <mxGeometry relative="1" as="geometry">
            <mxPoint x="116" y="483" as="sourcePoint" />
            <mxPoint x="151" y="483" as="targetPoint" />
          </mxGeometry>
        </mxCell>
        <mxCell id="J31y5YJIyik61Mz8HMyp-58" style="edgeStyle=orthogonalEdgeStyle;rounded=0;orthogonalLoop=1;jettySize=auto;html=1;entryX=-0.007;entryY=0.927;entryDx=0;entryDy=0;entryPerimeter=0;" edge="1" parent="1" target="J31y5YJIyik61Mz8HMyp-39">
          <mxGeometry relative="1" as="geometry">
            <mxPoint x="117" y="592" as="sourcePoint" />
            <mxPoint x="577" y="632" as="targetPoint" />
          </mxGeometry>
        </mxCell>
        <mxCell id="J31y5YJIyik61Mz8HMyp-59" style="edgeStyle=orthogonalEdgeStyle;rounded=0;orthogonalLoop=1;jettySize=auto;html=1;entryX=0;entryY=0.5;entryDx=0;entryDy=0;" edge="1" parent="1">
          <mxGeometry relative="1" as="geometry">
            <mxPoint x="116" y="365" as="sourcePoint" />
            <mxPoint x="148" y="365" as="targetPoint" />
          </mxGeometry>
        </mxCell>
      </root>
    </mxGraphModel>
  </diagram>
</mxfile>
